<svg width="18" height="17" viewBox="0 0 18 17" fill="none" xmlns="http://www.w3.org/2000/svg">
<path d="M0 0.756414C0 0.337235 0.337235 0 0.756414 0H2.19045C2.88383 0 3.49842 0.403421 3.78522 1.00855H16.7388C17.5677 1.00855 18.1729 1.79648 17.9554 2.59702L16.6632 7.3971C16.3953 8.38674 15.497 9.07697 14.4727 9.07697H5.38L5.55019 9.97521C5.61953 10.3314 5.93155 10.5898 6.294 10.5898H15.3804C15.7996 10.5898 16.1368 10.927 16.1368 11.3462C16.1368 11.7654 15.7996 12.1026 15.3804 12.1026H6.294C5.2035 12.1026 4.26744 11.3273 4.06573 10.2589L2.43944 1.71769C2.41737 1.59793 2.31337 1.51283 2.19045 1.51283H0.756414C0.337235 1.51283 0 1.17559 0 0.756414ZM4.03421 14.624C4.03421 14.4253 4.07334 14.2286 4.14937 14.0451C4.22539 13.8615 4.33683 13.6948 4.47731 13.5543C4.61779 13.4138 4.78456 13.3024 4.9681 13.2263C5.15165 13.1503 5.34837 13.1112 5.54704 13.1112C5.74571 13.1112 5.94243 13.1503 6.12597 13.2263C6.30952 13.3024 6.47629 13.4138 6.61677 13.5543C6.75725 13.6948 6.86868 13.8615 6.94471 14.0451C7.02074 14.2286 7.05987 14.4253 7.05987 14.624C7.05987 14.8227 7.02074 15.0194 6.94471 15.2029C6.86868 15.3865 6.75725 15.5533 6.61677 15.6937C6.47629 15.8342 6.30952 15.9457 6.12597 16.0217C5.94243 16.0977 5.74571 16.1368 5.54704 16.1368C5.34837 16.1368 5.15165 16.0977 4.9681 16.0217C4.78456 15.9457 4.61779 15.8342 4.47731 15.6937C4.33683 15.5533 4.22539 15.3865 4.14937 15.2029C4.07334 15.0194 4.03421 14.8227 4.03421 14.624ZM14.624 13.1112C15.0252 13.1112 15.41 13.2706 15.6937 13.5543C15.9775 13.838 16.1368 14.2228 16.1368 14.624C16.1368 15.0252 15.9775 15.41 15.6937 15.6937C15.41 15.9775 15.0252 16.1368 14.624 16.1368C14.2228 16.1368 13.838 15.9775 13.5543 15.6937C13.2706 15.41 13.1112 15.0252 13.1112 14.624C13.1112 14.2228 13.2706 13.838 13.5543 13.5543C13.838 13.2706 14.2228 13.1112 14.624 13.1112Z" fill="#1E3050"/>
</svg>
