<svg width="48" height="39" viewBox="0 0 48 39" fill="none" xmlns="http://www.w3.org/2000/svg">
<g clip-path="url(#clip0_11_3259)">
<path d="M2.4 0C1.0725 0 0 1.07402 0 2.40341C0 3.73279 1.0725 4.80682 2.4 4.80682H3.6C4.26 4.80682 4.8 5.34759 4.8 6.00852V27.6392C4.8 30.9589 7.485 33.6477 10.8 33.6477H12.2025C12.0675 34.0233 12 34.4288 12 34.8494C12 36.8398 13.6125 38.4545 15.6 38.4545C17.5875 38.4545 19.2 36.8398 19.2 34.8494C19.2 34.4288 19.125 34.0233 18.9975 33.6477H33.8025C33.6675 34.0233 33.6 34.4288 33.6 34.8494C33.6 36.8398 35.2125 38.4545 37.2 38.4545C39.1875 38.4545 40.8 36.8398 40.8 34.8494C40.8 34.4288 40.725 34.0233 40.5975 33.6477H45.6C46.9275 33.6477 48 32.5737 48 31.2443C48 29.9149 46.9275 28.8409 45.6 28.8409H10.8C10.14 28.8409 9.6 28.3001 9.6 27.6392V6.00852C9.6 2.68881 6.915 0 3.6 0H2.4ZM14.4 6.00852V20.429C14.4 22.4193 16.0125 24.0341 18 24.0341H42C43.9875 24.0341 45.6 22.4193 45.6 20.429V6.00852C45.6 4.0182 43.9875 2.40341 42 2.40341H34.8V13.2188C34.8 13.6619 34.56 14.0675 34.1625 14.2778C33.765 14.4881 33.3 14.4655 32.9325 14.2177L30 12.2574L27.0675 14.2177C26.7 14.4655 26.2275 14.4881 25.8375 14.2778C25.4475 14.0675 25.2 13.6619 25.2 13.2188V2.40341H18C16.0125 2.40341 14.4 4.0182 14.4 6.00852Z" fill="#1E3050"/>
</g>
<defs>
<clipPath id="clip0_11_3259">
<rect width="48" height="38.4545" fill="white"/>
</clipPath>
</defs>
</svg>
